<?xml version="1.0" standalone="no"?>
<svg xmlns="http://www.w3.org/2000/svg" xmlns:xlink="http://www.w3.org/1999/xlink" width="2476pt" height="1105pt" viewBox="0.00 0.00 2475.58 1104.8">
<g id="graph0" class="graph" transform="translate(4,1100.800048828125) scale(1)" data-name="G">

<polygon fill="white" stroke="none" points="-4,4 -4,-1100.8 2471.58,-1100.8 2471.58,4 -4,4"/>
<!-- T00 -->
<g id="node1" class="node" pointer-events="visible" data-name="T00">

<polygon fill="none" stroke="black" points="154.57,-1097 -0.19,-1097 -0.19,-1038.2 154.57,-1038.2 154.57,-1097"/>
<text text-anchor="middle" x="77.19" y="-1080.2" font-family="Times,serif" font-size="14.00">T00</text>
<text text-anchor="middle" x="77.19" y="-1063.4" font-family="Times,serif" font-size="14.00">emigrants steerage cabin</text>
<text text-anchor="middle" x="77.19" y="-1046.6" font-family="Times,serif" font-size="14.00">mess cook organ water</text>
</g>
<!-- T01 -->
<g id="node2" class="node" pointer-events="visible" data-name="T01">

<polygon fill="none" stroke="black" points="888.66,-908.2 777.72,-908.2 777.72,-849.4 888.66,-849.4 888.66,-908.2"/>
<text text-anchor="middle" x="833.19" y="-891.4" font-family="Times,serif" font-size="14.00">T01</text>
<text text-anchor="middle" x="833.19" y="-874.6" font-family="Times,serif" font-size="14.00">man men things</text>
<text text-anchor="middle" x="833.19" y="-857.8" font-family="Times,serif" font-size="14.00">wine ha day way</text>
</g>
<!-- T03 -->
<g id="node4" class="node" pointer-events="visible" data-name="T03">

<polygon fill="none" stroke="black" points="1127.58,-813.8 948.8,-813.8 948.8,-755 1127.58,-755 1127.58,-813.8"/>
<text text-anchor="middle" x="1038.19" y="-797" font-family="Times,serif" font-size="14.00">T03</text>
<text text-anchor="middle" x="1038.19" y="-780.2" font-family="Times,serif" font-size="14.00">way friend nature</text>
<text text-anchor="middle" x="1038.19" y="-763.4" font-family="Times,serif" font-size="14.00">sort stranger confidence kind</text>
</g>
<!-- T01&#45;&#45;T03 -->
<g id="edge1" class="edge" data-name="T01--T03">

<path fill="none" stroke="black" d="M888.94,-852.67C915.26,-840.81 946.81,-826.59 974.12,-814.28"/>
</g>
<!-- T13 -->
<g id="node14" class="node" pointer-events="visible" data-name="T13">

<polygon fill="none" stroke="black" points="519.27,-719.4 385.11,-719.4 385.11,-660.6 519.27,-660.6 519.27,-719.4"/>
<text text-anchor="middle" x="452.19" y="-702.6" font-family="Times,serif" font-size="14.00">T13</text>
<text text-anchor="middle" x="452.19" y="-685.8" font-family="Times,serif" font-size="14.00">canoe time face</text>
<text text-anchor="middle" x="452.19" y="-669" font-family="Times,serif" font-size="14.00">cook island head sort</text>
</g>
<!-- T01&#45;&#45;T13 -->
<g id="edge2" class="edge" data-name="T01--T13">

<path fill="none" stroke="black" d="M777.45,-859.18C744.05,-847.4 701.04,-831.11 664.19,-813.6 604.48,-785.22 539.09,-746.08 496.95,-719.73"/>
</g>
<!-- T14 -->
<g id="node15" class="node" pointer-events="visible" data-name="T14">

<polygon fill="none" stroke="black" points="820.98,-813.8 673.4,-813.8 673.4,-755 820.98,-755 820.98,-813.8"/>
<text text-anchor="middle" x="747.19" y="-797" font-family="Times,serif" font-size="14.00">T14</text>
<text text-anchor="middle" x="747.19" y="-780.2" font-family="Times,serif" font-size="14.00">time world things</text>
<text text-anchor="middle" x="747.19" y="-763.4" font-family="Times,serif" font-size="14.00">years people land times</text>
</g>
<!-- T01&#45;&#45;T14 -->
<g id="edge3" class="edge" data-name="T01--T14">

<path fill="none" stroke="black" d="M806.45,-849.07C796.1,-837.95 784.27,-825.24 773.91,-814.11"/>
</g>
<!-- T17 -->
<g id="node18" class="node" pointer-events="visible" data-name="T17">

<polygon fill="none" stroke="black" points="970.32,-719.4 834.06,-719.4 834.06,-660.6 970.32,-660.6 970.32,-719.4"/>
<text text-anchor="middle" x="902.19" y="-702.6" font-family="Times,serif" font-size="14.00">T17</text>
<text text-anchor="middle" x="902.19" y="-685.8" font-family="Times,serif" font-size="14.00">house king heart</text>
<text text-anchor="middle" x="902.19" y="-669" font-family="Times,serif" font-size="14.00">mind time life people</text>
</g>
<!-- T01&#45;&#45;T17 -->
<g id="edge4" class="edge" data-name="T01--T17">

<path fill="none" stroke="black" d="M843.82,-849.02C856.79,-813.92 878.58,-754.93 891.55,-719.81"/>
</g>
<!-- T19 -->
<g id="node20" class="node" pointer-events="visible" data-name="T19">

<polygon fill="none" stroke="black" points="1170.03,-625 1048.35,-625 1048.35,-566.2 1170.03,-566.2 1170.03,-625"/>
<text text-anchor="middle" x="1109.19" y="-608.2" font-family="Times,serif" font-size="14.00">T19</text>
<text text-anchor="middle" x="1109.19" y="-591.4" font-family="Times,serif" font-size="14.00">things soul man</text>
<text text-anchor="middle" x="1109.19" y="-574.6" font-family="Times,serif" font-size="14.00">heart life love men</text>
</g>
<!-- T01&#45;&#45;T19 -->
<g id="edge5" class="edge" data-name="T01--T19">

<path fill="none" stroke="black" d="M889.06,-874.15C967.92,-867.71 1105.68,-851.25 1136.19,-813.6 1180.29,-759.18 1146.8,-670.49 1124.65,-625.19"/>
</g>
<!-- T30 -->
<g id="node31" class="node" pointer-events="visible" data-name="T30">

<polygon fill="none" stroke="black" points="445.62,-247.4 322.76,-247.4 322.76,-188.6 445.62,-188.6 445.62,-247.4"/>
<text text-anchor="middle" x="384.19" y="-230.6" font-family="Times,serif" font-size="14.00">T30</text>
<text text-anchor="middle" x="384.19" y="-213.8" font-family="Times,serif" font-size="14.00">ship deck night</text>
<text text-anchor="middle" x="384.19" y="-197" font-family="Times,serif" font-size="14.00">man sail wind time</text>
</g>
<!-- T01&#45;&#45;T30 -->
<g id="edge6" class="edge" data-name="T01--T30">

<path fill="none" stroke="black" d="M777.66,-868.17C652.09,-844.81 357.19,-780.44 357.19,-691 357.19,-691 357.19,-691 357.19,-594.6 357.19,-464.83 373.42,-310.48 380.72,-247.69"/>
</g>
<!-- T02 -->
<g id="node3" class="node" pointer-events="visible" data-name="T02">

<polygon fill="none" stroke="black" points="313.75,-1097 172.63,-1097 172.63,-1038.2 313.75,-1038.2 313.75,-1097"/>
<text text-anchor="middle" x="243.19" y="-1080.2" font-family="Times,serif" font-size="14.00">T02</text>
<text text-anchor="middle" x="243.19" y="-1063.4" font-family="Times,serif" font-size="14.00">air fish round</text>
<text text-anchor="middle" x="243.19" y="-1046.6" font-family="Times,serif" font-size="14.00">day trees groves water</text>
</g>
<!-- T10 -->
<g id="node11" class="node" pointer-events="visible" data-name="T10">

<polygon fill="none" stroke="black" points="431.13,-1002.6 271.25,-1002.6 271.25,-943.8 431.13,-943.8 431.13,-1002.6"/>
<text text-anchor="middle" x="351.19" y="-985.8" font-family="Times,serif" font-size="14.00">T10</text>
<text text-anchor="middle" x="351.19" y="-969" font-family="Times,serif" font-size="14.00">natives time island</text>
<text text-anchor="middle" x="351.19" y="-952.2" font-family="Times,serif" font-size="14.00">house place islanders feet</text>
</g>
<!-- T02&#45;&#45;T10 -->
<g id="edge7" class="edge" data-name="T02--T10">

<path fill="none" stroke="black" d="M276.77,-1037.87C289.77,-1026.75 304.63,-1014.04 317.63,-1002.91"/>
</g>
<!-- T12 -->
<g id="node13" class="node" pointer-events="visible" data-name="T12">

<polygon fill="none" stroke="black" points="337.23,-908.2 225.15,-908.2 225.15,-849.4 337.23,-849.4 337.23,-908.2"/>
<text text-anchor="middle" x="281.19" y="-891.4" font-family="Times,serif" font-size="14.00">T12</text>
<text text-anchor="middle" x="281.19" y="-874.6" font-family="Times,serif" font-size="14.00">time land water</text>
<text text-anchor="middle" x="281.19" y="-857.8" font-family="Times,serif" font-size="14.00">ship air day sight</text>
</g>
<!-- T02&#45;&#45;T12 -->
<g id="edge8" class="edge" data-name="T02--T12">

<path fill="none" stroke="black" d="M246.5,-1038.15C249.67,-1013.18 255.02,-975.94 262.19,-944 264.81,-932.32 268.4,-919.64 271.75,-908.67"/>
</g>
<!-- T02&#45;&#45;T30 -->
<g id="edge9" class="edge" data-name="T02--T30">

<path fill="none" stroke="black" d="M223.42,-1037.98C200.9,-1002.53 167.19,-939.5 167.19,-879.8 167.19,-879.8 167.19,-879.8 167.19,-783.4 167.19,-549.72 214.95,-487.05 329.19,-283.2 336.22,-270.65 345.93,-258.3 355.23,-247.84"/>
</g>
<!-- T03&#45;&#45;T13 -->
<g id="edge10" class="edge" data-name="T03--T13">

<path fill="none" stroke="black" d="M948.39,-770.91C911.75,-765.9 868.96,-760.15 830.19,-755.2 696.54,-738.15 660.22,-750.58 529.19,-719.2 526.01,-718.44 522.77,-717.58 519.52,-716.66"/>
</g>
<!-- T18 -->
<g id="node19" class="node" pointer-events="visible" data-name="T18">

<polygon fill="none" stroke="black" points="1441.94,-719.4 1302.44,-719.4 1302.44,-660.6 1441.94,-660.6 1441.94,-719.4"/>
<text text-anchor="middle" x="1372.19" y="-702.6" font-family="Times,serif" font-size="14.00">T18</text>
<text text-anchor="middle" x="1372.19" y="-685.8" font-family="Times,serif" font-size="14.00">mother room door</text>
<text text-anchor="middle" x="1372.19" y="-669" font-family="Times,serif" font-size="14.00">man guide eyes world</text>
</g>
<!-- T03&#45;&#45;T18 -->
<g id="edge11" class="edge" data-name="T03--T18">

<path fill="none" stroke="black" d="M1128,-762.01C1175.8,-750.2 1235.44,-734.8 1288.19,-719.2 1292.76,-717.85 1297.46,-716.41 1302.18,-714.92"/>
</g>
<!-- T03&#45;&#45;T19 -->
<g id="edge12" class="edge" data-name="T03--T19">

<path fill="none" stroke="black" d="M1065.43,-754.7C1073.96,-744.24 1082.6,-731.87 1088.19,-719.2 1101.53,-688.97 1106.43,-651.09 1108.21,-625.49"/>
</g>
<!-- T20 -->
<g id="node21" class="node" pointer-events="visible" data-name="T20">

<polygon fill="none" stroke="black" points="1498.2,-530.6 1302.18,-530.6 1302.18,-471.8 1498.2,-471.8 1498.2,-530.6"/>
<text text-anchor="middle" x="1400.19" y="-513.8" font-family="Times,serif" font-size="14.00">T20</text>
<text text-anchor="middle" x="1400.19" y="-497" font-family="Times,serif" font-size="14.00">feelings heart mind</text>
<text text-anchor="middle" x="1400.19" y="-480.2" font-family="Times,serif" font-size="14.00">moment letter happiness subject</text>
</g>
<!-- T03&#45;&#45;T20 -->
<g id="edge13" class="edge" data-name="T03--T20">

<path fill="none" stroke="black" d="M1128.02,-770.08C1168.25,-760.79 1214.53,-745.2 1250.19,-719.2 1259.28,-712.57 1342.79,-588.27 1381.12,-530.84"/>
</g>
<!-- T21 -->
<g id="node22" class="node" pointer-events="visible" data-name="T21">

<polygon fill="none" stroke="black" points="1169.86,-436.2 1028.52,-436.2 1028.52,-377.4 1169.86,-377.4 1169.86,-436.2"/>
<text text-anchor="middle" x="1099.19" y="-419.4" font-family="Times,serif" font-size="14.00">T21</text>
<text text-anchor="middle" x="1099.19" y="-402.6" font-family="Times,serif" font-size="14.00">barber gentleman men</text>
<text text-anchor="middle" x="1099.19" y="-385.8" font-family="Times,serif" font-size="14.00">sort world time life</text>
</g>
<!-- T03&#45;&#45;T21 -->
<g id="edge14" class="edge" data-name="T03--T21">

<path fill="none" stroke="black" d="M1044.71,-754.8C1046.92,-743.74 1049.1,-730.94 1050.19,-719.2 1052.58,-693.36 1054.02,-686.47 1050.19,-660.8 1047.72,-644.25 1041.66,-641.35 1039.19,-624.8 1035.36,-599.13 1034.52,-591.93 1039.19,-566.4 1047.82,-519.2 1069.79,-467.81 1084.6,-436.7"/>
</g>
<!-- T24 -->
<g id="node25" class="node" pointer-events="visible" data-name="T24">

<polygon fill="none" stroke="black" points="976.45,-436.2 843.93,-436.2 843.93,-377.4 976.45,-377.4 976.45,-436.2"/>
<text text-anchor="middle" x="910.19" y="-419.4" font-family="Times,serif" font-size="14.00">T24</text>
<text text-anchor="middle" x="910.19" y="-402.6" font-family="Times,serif" font-size="14.00">day time consul</text>
<text text-anchor="middle" x="910.19" y="-385.8" font-family="Times,serif" font-size="14.00">boat way ships tailor</text>
</g>
<!-- T03&#45;&#45;T24 -->
<g id="edge15" class="edge" data-name="T03--T24">

<path fill="none" stroke="black" d="M1033.58,-754.8C1029.2,-729.72 1021.84,-692.43 1012.19,-660.8 986.69,-577.23 944.97,-482.7 923.65,-436.42"/>
</g>
<!-- T29 -->
<g id="node30" class="node" pointer-events="visible" data-name="T29">

<polygon fill="none" stroke="black" points="882.08,-341.8 720.3,-341.8 720.3,-283 882.08,-283 882.08,-341.8"/>
<text text-anchor="middle" x="801.19" y="-325" font-family="Times,serif" font-size="14.00">T29</text>
<text text-anchor="middle" x="801.19" y="-308.2" font-family="Times,serif" font-size="14.00">men war gun</text>
<text text-anchor="middle" x="801.19" y="-291.4" font-family="Times,serif" font-size="14.00">guns deck jacket man war</text>
</g>
<!-- T03&#45;&#45;T29 -->
<g id="edge16" class="edge" data-name="T03--T29">

<path fill="none" stroke="black" d="M1025.55,-754.66C1014.21,-729.49 996.69,-692.15 979.19,-660.8 921.36,-557.2 883.58,-544.33 835.19,-436 821.41,-405.14 811.95,-367.38 806.58,-341.98"/>
</g>
<!-- T34 -->
<g id="node35" class="node" pointer-events="visible" data-name="T34">

<polygon fill="none" stroke="black" points="705.75,-153 550.63,-153 550.63,-94.2 705.75,-94.2 705.75,-153"/>
<text text-anchor="middle" x="628.19" y="-136.2" font-family="Times,serif" font-size="14.00">T34</text>
<text text-anchor="middle" x="628.19" y="-119.4" font-family="Times,serif" font-size="14.00">deck men ship</text>
<text text-anchor="middle" x="628.19" y="-102.6" font-family="Times,serif" font-size="14.00">sailors time captain mate</text>
</g>
<!-- T03&#45;&#45;T34 -->
<g id="edge17" class="edge" data-name="T03--T34">

<path fill="none" stroke="black" d="M1086.63,-754.62C1133.72,-722.55 1198.19,-665.99 1198.19,-596.6 1198.19,-596.6 1198.19,-596.6 1198.19,-311.4 1198.19,-209.09 862.36,-153.78 706.25,-133.6"/>
</g>
<!-- T38 -->
<g id="node39" class="node" pointer-events="visible" data-name="T38">

<polygon fill="none" stroke="black" points="1623.54,-341.8 1466.84,-341.8 1466.84,-283 1623.54,-283 1623.54,-341.8"/>
<text text-anchor="middle" x="1545.19" y="-325" font-family="Times,serif" font-size="14.00">T38</text>
<text text-anchor="middle" x="1545.19" y="-308.2" font-family="Times,serif" font-size="14.00">day house thing</text>
<text text-anchor="middle" x="1545.19" y="-291.4" font-family="Times,serif" font-size="14.00">room sister man pleasure</text>
</g>
<!-- T03&#45;&#45;T38 -->
<g id="edge18" class="edge" data-name="T03--T38">

<path fill="none" stroke="black" d="M1127.77,-768.94C1158.64,-759.63 1190.79,-744.33 1212.19,-719.2 1248.18,-676.92 1236.19,-652.12 1236.19,-596.6 1236.19,-596.6 1236.19,-596.6 1236.19,-500.2 1236.19,-392.69 1374.87,-345.39 1466.42,-325.88"/>
</g>
<!-- T04 -->
<g id="node5" class="node" pointer-events="visible" data-name="T04">

<polygon fill="none" stroke="black" points="504.49,-1097 331.89,-1097 331.89,-1038.2 504.49,-1038.2 504.49,-1097"/>
<text text-anchor="middle" x="418.19" y="-1080.2" font-family="Times,serif" font-size="14.00">T04</text>
<text text-anchor="middle" x="418.19" y="-1063.4" font-family="Times,serif" font-size="14.00">herb confidence man</text>
<text text-anchor="middle" x="418.19" y="-1046.6" font-family="Times,serif" font-size="14.00">herb doctor ugh doctor dont</text>
</g>
<!-- T05 -->
<g id="node6" class="node" pointer-events="visible" data-name="T05">

<polygon fill="none" stroke="black" points="1542.1,-813.8 1398.28,-813.8 1398.28,-755 1542.1,-755 1542.1,-813.8"/>
<text text-anchor="middle" x="1470.19" y="-797" font-family="Times,serif" font-size="14.00">T05</text>
<text text-anchor="middle" x="1470.19" y="-780.2" font-family="Times,serif" font-size="14.00">mother family years</text>
<text text-anchor="middle" x="1470.19" y="-763.4" font-family="Times,serif" font-size="14.00">brother time aunt child</text>
</g>
<!-- T05&#45;&#45;T18 -->
<g id="edge19" class="edge" data-name="T05--T18">

<path fill="none" stroke="black" d="M1439.72,-754.67C1427.92,-743.55 1414.44,-730.84 1402.64,-719.71"/>
</g>
<!-- T05&#45;&#45;T20 -->
<g id="edge20" class="edge" data-name="T05--T20">

<path fill="none" stroke="black" d="M1467.06,-754.91C1464.02,-729.91 1458.73,-692.66 1451.19,-660.8 1440.26,-614.64 1422.41,-562.53 1410.98,-531.04"/>
</g>
<!-- T05&#45;&#45;T38 -->
<g id="edge21" class="edge" data-name="T05--T38">

<path fill="none" stroke="black" d="M1479.37,-754.53C1497.58,-695.48 1537.58,-556.34 1550.19,-436 1553.54,-404.01 1551.2,-367.1 1548.71,-342.21"/>
</g>
<!-- T06 -->
<g id="node7" class="node" pointer-events="visible" data-name="T06">

<polygon fill="none" stroke="black" points="702.62,-1097 521.76,-1097 521.76,-1038.2 702.62,-1038.2 702.62,-1097"/>
<text text-anchor="middle" x="612.19" y="-1080.2" font-family="Times,serif" font-size="14.00">T06</text>
<text text-anchor="middle" x="612.19" y="-1063.4" font-family="Times,serif" font-size="14.00">abbey gallery generals</text>
<text text-anchor="middle" x="612.19" y="-1046.6" font-family="Times,serif" font-size="14.00">harpooneer general man nose</text>
</g>
<!-- T07 -->
<g id="node8" class="node" pointer-events="visible" data-name="T07">

<polygon fill="none" stroke="black" points="881.99,-1097 720.39,-1097 720.39,-1038.2 881.99,-1038.2 881.99,-1097"/>
<text text-anchor="middle" x="801.19" y="-1080.2" font-family="Times,serif" font-size="14.00">T07</text>
<text text-anchor="middle" x="801.19" y="-1063.4" font-family="Times,serif" font-size="14.00">day country village</text>
<text text-anchor="middle" x="801.19" y="-1046.6" font-family="Times,serif" font-size="14.00">horse morning road house</text>
</g>
<!-- T08 -->
<g id="node9" class="node" pointer-events="visible" data-name="T08">

<polygon fill="none" stroke="black" points="1697.78,-813.8 1570.6,-813.8 1570.6,-755 1697.78,-755 1697.78,-813.8"/>
<text text-anchor="middle" x="1634.19" y="-797" font-family="Times,serif" font-size="14.00">T08</text>
<text text-anchor="middle" x="1634.19" y="-780.2" font-family="Times,serif" font-size="14.00">door house moment</text>
<text text-anchor="middle" x="1634.19" y="-763.4" font-family="Times,serif" font-size="14.00">time bed night hand</text>
</g>
<!-- T08&#45;&#45;T18 -->
<g id="edge22" class="edge" data-name="T08--T18">

<path fill="none" stroke="black" d="M1570.43,-760.91C1531.66,-747.24 1482.1,-729.76 1442.23,-715.7"/>
</g>
<!-- T08&#45;&#45;T20 -->
<g id="edge23" class="edge" data-name="T08--T20">

<path fill="none" stroke="black" d="M1601.13,-754.77C1589.36,-744.03 1576.28,-731.45 1565.19,-719.2 1534.93,-685.78 1458.34,-581.94 1421.13,-530.98"/>
</g>
<!-- T35 -->
<g id="node36" class="node" pointer-events="visible" data-name="T35">

<polygon fill="none" stroke="black" points="1713.94,-719.4 1574.44,-719.4 1574.44,-660.6 1713.94,-660.6 1713.94,-719.4"/>
<text text-anchor="middle" x="1644.19" y="-702.6" font-family="Times,serif" font-size="14.00">T35</text>
<text text-anchor="middle" x="1644.19" y="-685.8" font-family="Times,serif" font-size="14.00">chimney table time</text>
<text text-anchor="middle" x="1644.19" y="-669" font-family="Times,serif" font-size="14.00">cock man house room</text>
</g>
<!-- T08&#45;&#45;T35 -->
<g id="edge24" class="edge" data-name="T08--T35">

<path fill="none" stroke="black" d="M1637.3,-754.67C1638.5,-743.55 1639.88,-730.84 1641.08,-719.71"/>
</g>
<!-- T08&#45;&#45;T38 -->
<g id="edge25" class="edge" data-name="T08--T38">

<path fill="none" stroke="black" d="M1690.86,-754.69C1703.81,-745.26 1715.9,-733.45 1723.19,-719.2 1735.01,-696.09 1731.82,-685.28 1723.19,-660.8 1716.36,-641.42 1705.14,-642.18 1694.19,-624.8 1632.21,-526.43 1578.6,-398.32 1556.27,-342.04"/>
</g>
<!-- T09 -->
<g id="node10" class="node" pointer-events="visible" data-name="T09">

<polygon fill="none" stroke="black" points="1048,-1097 900.38,-1097 900.38,-1038.2 1048,-1038.2 1048,-1097"/>
<text text-anchor="middle" x="974.19" y="-1080.2" font-family="Times,serif" font-size="14.00">T09</text>
<text text-anchor="middle" x="974.19" y="-1063.4" font-family="Times,serif" font-size="14.00">god image lord</text>
<text text-anchor="middle" x="974.19" y="-1046.6" font-family="Times,serif" font-size="14.00">idols images wine arms</text>
</g>
<!-- T10&#45;&#45;T12 -->
<g id="edge26" class="edge" data-name="T10--T12">

<path fill="none" stroke="black" d="M329.43,-943.47C321,-932.35 311.37,-919.64 302.94,-908.51"/>
</g>
<!-- T10&#45;&#45;T13 -->
<g id="edge27" class="edge" data-name="T10--T13">

<path fill="none" stroke="black" d="M361.52,-943.43C380.93,-889.4 422.61,-773.36 441.95,-719.52"/>
</g>
<!-- T11 -->
<g id="node12" class="node" pointer-events="visible" data-name="T11">

<polygon fill="none" stroke="black" points="1188.07,-1097 1066.31,-1097 1066.31,-1038.2 1188.07,-1038.2 1188.07,-1097"/>
<text text-anchor="middle" x="1127.19" y="-1080.2" font-family="Times,serif" font-size="14.00">T11</text>
<text text-anchor="middle" x="1127.19" y="-1063.4" font-family="Times,serif" font-size="14.00">teeth kings royal</text>
<text text-anchor="middle" x="1127.19" y="-1046.6" font-family="Times,serif" font-size="14.00">milk bull lord item</text>
</g>
<!-- T12&#45;&#45;T14 -->
<g id="edge28" class="edge" data-name="T12--T14">

<path fill="none" stroke="black" d="M337.4,-866.65C421.4,-850 579.77,-818.6 673.12,-800.09"/>
</g>
<!-- T25 -->
<g id="node26" class="node" pointer-events="visible" data-name="T25">

<polygon fill="none" stroke="black" points="261.04,-341.8 139.34,-341.8 139.34,-283 261.04,-283 261.04,-341.8"/>
<text text-anchor="middle" x="200.19" y="-325" font-family="Times,serif" font-size="14.00">T25</text>
<text text-anchor="middle" x="200.19" y="-308.2" font-family="Times,serif" font-size="14.00">boat whales ship</text>
<text text-anchor="middle" x="200.19" y="-291.4" font-family="Times,serif" font-size="14.00">boats head sea line</text>
</g>
<!-- T12&#45;&#45;T25 -->
<g id="edge29" class="edge" data-name="T12--T25">

<path fill="none" stroke="black" d="M277.06,-849.04C263.17,-752.22 218.19,-438.84 204.31,-342.11"/>
</g>
<!-- T12&#45;&#45;T30 -->
<g id="edge30" class="edge" data-name="T12--T30">

<path fill="none" stroke="black" d="M269.69,-849.2C265.86,-838.25 262.09,-825.53 260.19,-813.6 256.1,-787.97 257.72,-781.04 260.19,-755.2 280.5,-542.53 281.43,-485.13 351.19,-283.2 355.36,-271.12 361.45,-258.47 367.26,-247.63"/>
</g>
<!-- T12&#45;&#45;T34 -->
<g id="edge31" class="edge" data-name="T12--T34">

<path fill="none" stroke="black" d="M291.93,-848.94C308.09,-806.62 340.59,-725.71 376.19,-660.8 458.32,-511.04 526.52,-500.09 590.19,-341.6 615.92,-277.54 624.26,-195.94 626.94,-153.37"/>
</g>
<!-- T36 -->
<g id="node37" class="node" pointer-events="visible" data-name="T36">

<polygon fill="none" stroke="black" points="457.14,-58.6 311.24,-58.6 311.24,0.2 457.14,0.2 457.14,-58.6"/>
<text text-anchor="middle" x="384.19" y="-41.8" font-family="Times,serif" font-size="14.00">T36</text>
<text text-anchor="middle" x="384.19" y="-25" font-family="Times,serif" font-size="14.00">glass place sailors</text>
<text text-anchor="middle" x="384.19" y="-8.2" font-family="Times,serif" font-size="14.00">jacket friend sort sailor</text>
</g>
<!-- T12&#45;&#45;T36 -->
<g id="edge32" class="edge" data-name="T12--T36">

<path fill="none" stroke="black" d="M261.26,-849C203.22,-761.37 43.78,-491.23 130.19,-283.2 172.27,-181.89 276.8,-100.16 337.85,-59.07"/>
</g>
<!-- T13&#45;&#45;T30 -->
<g id="edge33" class="edge" data-name="T13--T30">

<path fill="none" stroke="black" d="M448.04,-660.31C435.88,-576.3 400.47,-331.52 388.33,-247.62"/>
</g>
<!-- T13&#45;&#45;T34 -->
<g id="edge34" class="edge" data-name="T13--T34">

<path fill="none" stroke="black" d="M516.58,-660.11C573.38,-629.73 647.19,-576.04 647.19,-502.2 647.19,-502.2 647.19,-502.2 647.19,-311.4 647.19,-255.17 638.56,-189.9 632.94,-153.31"/>
</g>
<!-- T14&#45;&#45;T17 -->
<g id="edge35" class="edge" data-name="T14--T17">

<path fill="none" stroke="black" d="M795.38,-754.67C813.96,-743.6 835.16,-730.96 853.76,-719.87"/>
</g>
<!-- T14&#45;&#45;T19 -->
<g id="edge36" class="edge" data-name="T14--T19">

<path fill="none" stroke="black" d="M763.83,-754.78C783.97,-720.55 816.29,-667.06 825.19,-660.8 891.64,-614.03 986.62,-600.69 1048.1,-597.23"/>
</g>
<!-- T14&#45;&#45;T21 -->
<g id="edge37" class="edge" data-name="T14--T21">

<path fill="none" stroke="black" d="M750.35,-754.54C754.35,-728.28 763.17,-689.35 782.19,-660.8 850.7,-557.95 974.26,-477.22 1045.19,-436.61"/>
</g>
<!-- T27 -->
<g id="node28" class="node" pointer-events="visible" data-name="T27">

<polygon fill="none" stroke="black" points="664.52,-719.4 537.86,-719.4 537.86,-660.6 664.52,-660.6 664.52,-719.4"/>
<text text-anchor="middle" x="601.19" y="-702.6" font-family="Times,serif" font-size="14.00">T27</text>
<text text-anchor="middle" x="601.19" y="-685.8" font-family="Times,serif" font-size="14.00">lord feet bones</text>
<text text-anchor="middle" x="601.19" y="-669" font-family="Times,serif" font-size="14.00">sea things skull ribs</text>
</g>
<!-- T14&#45;&#45;T27 -->
<g id="edge38" class="edge" data-name="T14--T27">

<path fill="none" stroke="black" d="M701.79,-754.67C684.3,-743.6 664.32,-730.96 646.81,-719.87"/>
</g>
<!-- T14&#45;&#45;T29 -->
<g id="edge39" class="edge" data-name="T14--T29">

<path fill="none" stroke="black" d="M742.94,-754.67C737.91,-718.06 730.19,-652.77 730.19,-596.6 730.19,-596.6 730.19,-596.6 730.19,-500.2 730.19,-441.05 761.68,-377.83 782.72,-342.2"/>
</g>
<!-- T14&#45;&#45;T34 -->
<g id="edge40" class="edge" data-name="T14--T34">

<path fill="none" stroke="black" d="M733.17,-754.73C716.87,-718.71 692.19,-654.58 692.19,-596.6 692.19,-596.6 692.19,-596.6 692.19,-311.4 692.19,-252.78 663.63,-189.13 644.67,-153.32"/>
</g>
<!-- T15 -->
<g id="node16" class="node" pointer-events="visible" data-name="T15">

<polygon fill="none" stroke="black" points="581.06,-341.8 431.32,-341.8 431.32,-283 581.06,-283 581.06,-341.8"/>
<text text-anchor="middle" x="506.19" y="-325" font-family="Times,serif" font-size="14.00">T15</text>
<text text-anchor="middle" x="506.19" y="-308.2" font-family="Times,serif" font-size="14.00">ship cabin voyage</text>
<text text-anchor="middle" x="506.19" y="-291.4" font-family="Times,serif" font-size="14.00">dollars ships man board</text>
</g>
<!-- T15&#45;&#45;T30 -->
<g id="edge41" class="edge" data-name="T15--T30">

<path fill="none" stroke="black" d="M468.26,-282.67C453.57,-271.55 436.79,-258.84 422.1,-247.71"/>
</g>
<!-- T15&#45;&#45;T34 -->
<g id="edge42" class="edge" data-name="T15--T34">

<path fill="none" stroke="black" d="M524.99,-282.62C547.91,-247.52 586.44,-188.53 609.37,-153.41"/>
</g>
<!-- T16 -->
<g id="node17" class="node" pointer-events="visible" data-name="T16">

<polygon fill="none" stroke="black" points="1832.84,-625 1703.54,-625 1703.54,-566.2 1832.84,-566.2 1832.84,-625"/>
<text text-anchor="middle" x="1768.19" y="-608.2" font-family="Times,serif" font-size="14.00">T16</text>
<text text-anchor="middle" x="1768.19" y="-591.4" font-family="Times,serif" font-size="14.00">oh body way</text>
<text text-anchor="middle" x="1768.19" y="-574.6" font-family="Times,serif" font-size="14.00">day world sort word</text>
</g>
<!-- T16&#45;&#45;T20 -->
<g id="edge43" class="edge" data-name="T16--T20">

<path fill="none" stroke="black" d="M1703.25,-578.29C1646.5,-564.05 1563.29,-543.15 1498.4,-526.86"/>
</g>
<!-- T23 -->
<g id="node24" class="node" pointer-events="visible" data-name="T23">

<polygon fill="none" stroke="black" points="1836.87,-530.6 1699.51,-530.6 1699.51,-471.8 1836.87,-471.8 1836.87,-530.6"/>
<text text-anchor="middle" x="1768.19" y="-513.8" font-family="Times,serif" font-size="14.00">T23</text>
<text text-anchor="middle" x="1768.19" y="-497" font-family="Times,serif" font-size="14.00">ball sir evening</text>
<text text-anchor="middle" x="1768.19" y="-480.2" font-family="Times,serif" font-size="14.00">way yes room partner</text>
</g>
<!-- T16&#45;&#45;T23 -->
<g id="edge44" class="edge" data-name="T16--T23">

<path fill="none" stroke="black" d="M1768.19,-565.87C1768.19,-554.75 1768.19,-542.04 1768.19,-530.91"/>
</g>
<!-- T16&#45;&#45;T38 -->
<g id="edge45" class="edge" data-name="T16--T38">

<path fill="none" stroke="black" d="M1816.36,-565.98C1828.33,-556.3 1839.6,-544.36 1846.19,-530.4 1857.27,-506.93 1857.67,-495.28 1846.19,-472 1804.59,-387.63 1698.27,-346.86 1623.85,-328.09"/>
</g>
<!-- T17&#45;&#45;T19 -->
<g id="edge46" class="edge" data-name="T17--T19">

<path fill="none" stroke="black" d="M966.83,-660.14C992.69,-648.6 1022.34,-635.37 1047.86,-623.98"/>
</g>
<!-- T18&#45;&#45;T19 -->
<g id="edge47" class="edge" data-name="T18--T19">

<path fill="none" stroke="black" d="M1302.06,-664.36C1260.97,-649.93 1209.58,-631.87 1170.18,-618.03"/>
</g>
<!-- T18&#45;&#45;T21 -->
<g id="edge48" class="edge" data-name="T18--T21">

<path fill="none" stroke="black" d="M1344.26,-660.23C1291.8,-606.2 1179.15,-490.16 1126.88,-436.32"/>
</g>
<!-- T18&#45;&#45;T38 -->
<g id="edge49" class="edge" data-name="T18--T38">

<path fill="none" stroke="black" d="M1405.12,-660.36C1436.58,-631.01 1482.74,-582.43 1507.19,-530.4 1536.63,-467.75 1543.44,-385.21 1544.9,-342.23"/>
</g>
<!-- T19&#45;&#45;T20 -->
<g id="edge50" class="edge" data-name="T19--T20">

<path fill="none" stroke="black" d="M1170.19,-575.23C1210.53,-562.42 1264.11,-545.41 1309.42,-531.02"/>
</g>
<!-- T19&#45;&#45;T21 -->
<g id="edge51" class="edge" data-name="T19--T21">

<path fill="none" stroke="black" d="M1107.65,-565.82C1105.77,-530.72 1102.61,-471.73 1100.73,-436.61"/>
</g>
<!-- T20&#45;&#45;T21 -->
<g id="edge52" class="edge" data-name="T20--T21">

<path fill="none" stroke="black" d="M1306.19,-471.34C1262.2,-457.84 1210.69,-442.03 1170.05,-429.55"/>
</g>
<!-- T20&#45;&#45;T38 -->
<g id="edge53" class="edge" data-name="T20--T38">

<path fill="none" stroke="black" d="M1422.53,-471.42C1449.78,-436.32 1495.57,-377.33 1522.83,-342.21"/>
</g>
<!-- T21&#45;&#45;T29 -->
<g id="edge54" class="edge" data-name="T21--T29">

<path fill="none" stroke="black" d="M1028.19,-383.79C984.38,-370.2 928.03,-352.73 882.44,-338.59"/>
</g>
<!-- T21&#45;&#45;T38 -->
<g id="edge55" class="edge" data-name="T21--T38">

<path fill="none" stroke="black" d="M1170.33,-389.12C1187.3,-385.24 1205.37,-381.2 1222.19,-377.6 1305.35,-359.81 1400.92,-341.01 1466.41,-328.39"/>
</g>
<!-- T22 -->
<g id="node23" class="node" pointer-events="visible" data-name="T22">

<polygon fill="none" stroke="black" points="1344.65,-1097 1205.73,-1097 1205.73,-1038.2 1344.65,-1038.2 1344.65,-1097"/>
<text text-anchor="middle" x="1275.19" y="-1080.2" font-family="Times,serif" font-size="14.00">T22</text>
<text text-anchor="middle" x="1275.19" y="-1063.4" font-family="Times,serif" font-size="14.00">time men head</text>
<text text-anchor="middle" x="1275.19" y="-1046.6" font-family="Times,serif" font-size="14.00">day sailor sea country</text>
</g>
<!-- T23&#45;&#45;T38 -->
<g id="edge56" class="edge" data-name="T23--T38">

<path fill="none" stroke="black" d="M1754.5,-471.34C1740.38,-444.14 1716.08,-403.77 1685.19,-377.6 1667.24,-362.39 1645.08,-350.05 1623.74,-340.41"/>
</g>
<!-- T24&#45;&#45;T29 -->
<g id="edge57" class="edge" data-name="T24--T29">

<path fill="none" stroke="black" d="M876.3,-377.07C863.18,-365.95 848.18,-353.24 835.06,-342.11"/>
</g>
<!-- T24&#45;&#45;T34 -->
<g id="edge58" class="edge" data-name="T24--T34">

<path fill="none" stroke="black" d="M912.15,-376.93C912.54,-350.48 909.46,-311.27 891.19,-283.2 848.15,-217.06 766.97,-174.38 706.14,-150.15"/>
</g>
<!-- T25&#45;&#45;T30 -->
<g id="edge59" class="edge" data-name="T25--T30">

<path fill="none" stroke="black" d="M257.65,-282.54C279.69,-271.48 304.82,-258.86 326.85,-247.8"/>
</g>
<!-- T25&#45;&#45;T34 -->
<g id="edge60" class="edge" data-name="T25--T34">

<path fill="none" stroke="black" d="M218.78,-282.75C238.82,-254.3 273.39,-211.71 314.19,-188.8 387.57,-147.59 483.85,-132.67 550.35,-127.35"/>
</g>
<!-- T26 -->
<g id="node27" class="node" pointer-events="visible" data-name="T26">

<polygon fill="none" stroke="black" points="1512.31,-1097 1362.07,-1097 1362.07,-1038.2 1512.31,-1038.2 1512.31,-1097"/>
<text text-anchor="middle" x="1437.19" y="-1080.2" font-family="Times,serif" font-size="14.00">T26</text>
<text text-anchor="middle" x="1437.19" y="-1063.4" font-family="Times,serif" font-size="14.00">lord king minstrel</text>
<text text-anchor="middle" x="1437.19" y="-1046.6" font-family="Times,serif" font-size="14.00">spears land royal throne</text>
</g>
<!-- T28 -->
<g id="node29" class="node" pointer-events="visible" data-name="T28">

<polygon fill="none" stroke="black" points="1684.49,-1097 1529.89,-1097 1529.89,-1038.2 1684.49,-1038.2 1684.49,-1097"/>
<text text-anchor="middle" x="1607.19" y="-1080.2" font-family="Times,serif" font-size="14.00">T28</text>
<text text-anchor="middle" x="1607.19" y="-1063.4" font-family="Times,serif" font-size="14.00">thing volume paper</text>
<text text-anchor="middle" x="1607.19" y="-1046.6" font-family="Times,serif" font-size="14.00">books reading work man</text>
</g>
<!-- T29&#45;&#45;T30 -->
<g id="edge61" class="edge" data-name="T29--T30">

<path fill="none" stroke="black" d="M720.29,-293.47C640,-275.68 518.69,-248.8 445.88,-232.67"/>
</g>
<!-- T29&#45;&#45;T34 -->
<g id="edge62" class="edge" data-name="T29--T34">

<path fill="none" stroke="black" d="M781.72,-282.69C763.59,-256.87 735.08,-218.55 706.19,-188.8 694.09,-176.34 679.69,-163.92 666.57,-153.37"/>
</g>
<!-- T30&#45;&#45;T34 -->
<g id="edge63" class="edge" data-name="T30--T34">

<path fill="none" stroke="black" d="M446.08,-193.56C478.27,-181.37 517.9,-166.36 551.97,-153.46"/>
</g>
<!-- T30&#45;&#45;T36 -->
<g id="edge64" class="edge" data-name="T30--T36">

<path fill="none" stroke="black" d="M384.19,-188.22C384.19,-153.12 384.19,-94.13 384.19,-59.01"/>
</g>
<!-- T31 -->
<g id="node32" class="node" pointer-events="visible" data-name="T31">

<polygon fill="none" stroke="black" points="1835.71,-1097 1702.67,-1097 1702.67,-1038.2 1835.71,-1038.2 1835.71,-1097"/>
<text text-anchor="middle" x="1769.19" y="-1080.2" font-family="Times,serif" font-size="14.00">T31</text>
<text text-anchor="middle" x="1769.19" y="-1063.4" font-family="Times,serif" font-size="14.00">jacket auction need</text>
<text text-anchor="middle" x="1769.19" y="-1046.6" font-family="Times,serif" font-size="14.00">loan friend bags way</text>
</g>
<!-- T32 -->
<g id="node33" class="node" pointer-events="visible" data-name="T32">

<polygon fill="none" stroke="black" points="1994.89,-1097 1853.49,-1097 1853.49,-1038.2 1994.89,-1038.2 1994.89,-1097"/>
<text text-anchor="middle" x="1924.19" y="-1080.2" font-family="Times,serif" font-size="14.00">T32</text>
<text text-anchor="middle" x="1924.19" y="-1063.4" font-family="Times,serif" font-size="14.00">man court punishment</text>
<text text-anchor="middle" x="1924.19" y="-1046.6" font-family="Times,serif" font-size="14.00">laws code time cases</text>
</g>
<!-- T33 -->
<g id="node34" class="node" pointer-events="visible" data-name="T33">

<polygon fill="none" stroke="black" points="2159.73,-1097 2012.65,-1097 2012.65,-1038.2 2159.73,-1038.2 2159.73,-1097"/>
<text text-anchor="middle" x="2086.19" y="-1080.2" font-family="Times,serif" font-size="14.00">T33</text>
<text text-anchor="middle" x="2086.19" y="-1063.4" font-family="Times,serif" font-size="14.00">head mystery oil</text>
<text text-anchor="middle" x="2086.19" y="-1046.6" font-family="Times,serif" font-size="14.00">girl whale sounds thing</text>
</g>
<!-- T34&#45;&#45;T36 -->
<g id="edge65" class="edge" data-name="T34--T36">

<path fill="none" stroke="black" d="M551.99,-93.74C521.79,-82.31 487.2,-69.21 457.31,-57.89"/>
</g>
<!-- T37 -->
<g id="node38" class="node" pointer-events="visible" data-name="T37">

<polygon fill="none" stroke="black" points="2294.35,-1097 2178.03,-1097 2178.03,-1038.2 2294.35,-1038.2 2294.35,-1097"/>
<text text-anchor="middle" x="2236.19" y="-1080.2" font-family="Times,serif" font-size="14.00">T37</text>
<text text-anchor="middle" x="2236.19" y="-1063.4" font-family="Times,serif" font-size="14.00">thee art brother</text>
<text text-anchor="middle" x="2236.19" y="-1046.6" font-family="Times,serif" font-size="14.00">oh face eyes heart</text>
</g>
<!-- T39 -->
<g id="node40" class="node" pointer-events="visible" data-name="T39">

<polygon fill="none" stroke="black" points="2467.47,-1097 2312.91,-1097 2312.91,-1038.2 2467.47,-1038.2 2467.47,-1097"/>
<text text-anchor="middle" x="2390.19" y="-1080.2" font-family="Times,serif" font-size="14.00">T39</text>
<text text-anchor="middle" x="2390.19" y="-1063.4" font-family="Times,serif" font-size="14.00">gentlemen man uncle</text>
<text text-anchor="middle" x="2390.19" y="-1046.6" font-family="Times,serif" font-size="14.00">leg operation water hand</text>
</g>
</g>
</svg>